# xmcd
#
# Track frame offsets:
#	182
#	15372
#	27162
#	39600
#	54717
#	68325
#	80100
#	92485
#	106022
#	127910
#	144650
#	164457
#
# Disc length: 2427 seconds
# Revision: 0
# Processed by: cddbd v1.5.2PL0 Copyright (c) Steve Scherf et al.
# Submitted via: dBpowerAMP V12.0
#
DISCID=8f09790c
DTITLE=Molly and The Heymakers - Molly and The Heymakers
DYEAR=1992
DGENRE=Country
TTITLE0=Jimmy McCarthy's Truck
TTITLE1=Chasin' Something Called Love
TTITLE2=Swinging Doors
TTITLE3=Mountain of Love
TTITLE4=Well Ran Dry
TTITLE5=Milkhouse
TTITLE6=Big Big Love
TTITLE7=He Comes Around
TTITLE8=Anyone Can Be Somebody's Fool
TTITLE9=Foolin' 'Round
TTITLE10=Gulf of Mexico
TTITLE11=If Love
EXTD=
EXTT0=
EXTT1=
EXTT2=
EXTT3=
EXTT4=
EXTT5=
EXTT6=
EXTT7=
EXTT8=
EXTT9=
EXTT10=
EXTT11=
PLAYORDER=
